<svg version="1.1" viewBox="0.0 0.0 280.0 280.0" fill="none" stroke="none" stroke-linecap="square" stroke-miterlimit="10" xmlns:xlink="http://www.w3.org/1999/xlink" xmlns="http://www.w3.org/2000/svg"><clipPath id="p.0"><path d="m0 0l280.0 0l0 280.0l-280.0 0l0 -280.0z" clip-rule="nonzero"/></clipPath><g clip-path="url(#p.0)"><path fill="#000000" fill-opacity="0.0" d="m0 0l280.0 0l0 280.0l-280.0 0z" fill-rule="evenodd"/><path fill="#000000" d="m26.868767 32.29263l96.43388 215.39578l33.75187 0l96.22424 -215.39578l-41.29886 0l-67.50372 160.51128l-4.6120605 10.799377l-4.40242 -10.5035095l-67.084435 -160.80714z" fill-rule="evenodd"/><path stroke="#000000" stroke-width="1.795275590551181" stroke-linejoin="round" stroke-linecap="butt" d="m26.868767 32.29263l96.43388 215.39578l33.75187 0l96.22424 -215.39578l-41.29886 0l-67.50372 160.51128l-4.6120605 10.799377l-4.40242 -10.5035095l-67.084435 -160.80714z" fill-rule="evenodd"/><path fill="#000000" d="m107.97907 32.29263l0 19.506065l21.689598 0l0 97.43518l-21.689598 0l0 19.47435l64.03892 0l0 -19.47435l-21.658386 0l0 -97.43518l21.658386 0l0 -19.506065z" fill-rule="evenodd"/><path stroke="#000000" stroke-width="1.795275590551181" stroke-linejoin="round" stroke-linecap="butt" d="m107.97907 32.29263l0 19.506065l21.689598 0l0 97.43518l-21.689598 0l0 19.47435l64.03892 0l0 -19.47435l-21.658386 0l0 -97.43518l21.658386 0l0 -19.506065z" fill-rule="evenodd"/></g></svg>